<svg fill="none" xmlns="http://www.w3.org/2000/svg" viewBox="24 2.59 171.56 171.56">
    <polygon points="24,144 24,48 107,75 168,48 168,144" fill="#72A2F3" />
    <g transform="translate(45,-24) scale(0.25)">
        <path d="M602.24 246.72a17.28 17.28 0 0 0-11.84-16.32l-42.88-14.4A90.56 90.56 0 0 1 490.24 160l-14.4-42.88a17.28 17.28 0 0 0-32 0L428.8 160a90.56 90.56 0 0 1-57.28 57.28l-42.88 14.4a17.28 17.28 0 0 0 0 32l42.88 14.4a90.56 90.56 0 0 1 57.28 57.28l14.4 42.88a17.28 17.28 0 0 0 32 0l14.4-42.88a90.56 90.56 0 0 1 57.28-57.28l42.88-14.4a17.28 17.28 0 0 0 12.48-16.96z" fill="#72A2F3" />
    </g>
</svg>
